<?xml version="1.0" encoding="UTF-8" standalone="no"?>
<!-- Created with Inkscape (http://www.inkscape.org/) -->

<svg
   width="32mm"
   height="32mm"
   viewBox="0 0 32 32"
   version="1.1"
   id="svg5"
   xml:space="preserve"
   inkscape:version="1.2.2 (732a01da63, 2022-12-09)"
   sodipodi:docname="Menu.svg"
   xmlns:inkscape="http://www.inkscape.org/namespaces/inkscape"
   xmlns:sodipodi="http://sodipodi.sourceforge.net/DTD/sodipodi-0.dtd"
   xmlns="http://www.w3.org/2000/svg"
   xmlns:svg="http://www.w3.org/2000/svg"><sodipodi:namedview
     id="namedview7"
     pagecolor="#ffffff"
     bordercolor="#000000"
     borderopacity="0.25"
     inkscape:showpageshadow="2"
     inkscape:pageopacity="0.0"
     inkscape:pagecheckerboard="0"
     inkscape:deskcolor="#d1d1d1"
     inkscape:document-units="mm"
     showgrid="false"
     inkscape:zoom="8.0007999"
     inkscape:cx="40.183482"
     inkscape:cy="65.555945"
     inkscape:window-width="3840"
     inkscape:window-height="2066"
     inkscape:window-x="-11"
     inkscape:window-y="-11"
     inkscape:window-maximized="1"
     inkscape:current-layer="layer1"
     showguides="false" /><defs
     id="defs2" /><g
     inkscape:label="Layer 1"
     inkscape:groupmode="layer"
     id="layer1"
     style="display:inline"><path
       style="color:#000000;display:none;fill:none;stroke:#ff0000;stroke-width:1;stroke-linecap:round;stroke-linejoin:round;-inkscape-stroke:none"
       d="m 10.9688,10.758171 v 10.427733 c 0.0013,1.249024 1.381009,2.004628 2.434382,1.333463 l 8.178903,-5.215103 c 0.975232,-0.622584 0.975232,-2.046817 0,-2.669401 L 13.403182,9.4222325 C 12.253262,8.8603291 10.99293,9.5911818 10.9688,10.758173 Z"
       id="Play" /><path
       id="Pause"
       style="display:none;fill:none;stroke:#000000;stroke-width:0.999997;stroke-linecap:round;stroke-linejoin:round"
       d="m 11.566726,9.0333332 h 1.266667 c 0.701733,0 1.266667,0.5649333 1.266667,1.2666668 v 11.4 c 0,0.701733 -0.564934,1.266667 -1.266667,1.266667 h -1.266667 c -0.701734,0 -1.266667,-0.564934 -1.266667,-1.266667 V 10.3 c 0,-0.7017335 0.564933,-1.2666668 1.266667,-1.2666668 z m 7.599883,0 h 1.266667 c 0.701732,0 1.266665,0.5649333 1.266665,1.2666668 v 11.4 c 0,0.701733 -0.564933,1.266667 -1.266665,1.266667 h -1.266667 c -0.701733,0 -1.266667,-0.564934 -1.266667,-1.266667 V 10.3 c 0,-0.7017335 0.564934,-1.2666668 1.266667,-1.2666668 z" /><path
       id="Step"
       style="color:#000000;display:none;fill:none;stroke:#ff0000;stroke-width:1;stroke-linecap:round;stroke-linejoin:round;-inkscape-stroke:none"
       d="m 9.5178759,10.76016 v 10.427733 c 0.0011,1.249023 1.2251551,2.004629 2.1596551,1.333464 l 7.255918,-5.215103 c 0.865177,-0.622584 0.865177,-2.046817 0,-2.669401 L 11.677531,9.4242213 C 10.657381,8.8623179 9.539282,9.5931706 9.5178759,10.760162 Z M 21.215456,9.0333331 h 1e-6 c 0.701733,0 1.266667,0.5649333 1.266667,1.2666669 v 11.4 c 0,0.701733 -0.564934,1.266667 -1.266667,1.266667 h -1e-6 c -0.701732,0 -1.266666,-0.564934 -1.266666,-1.266667 V 10.3 c 0,-0.7017336 0.564934,-1.2666669 1.266666,-1.2666669 z" /><path
       id="Restart"
       style="color:#000000;display:none;fill:none;stroke:#ff0000;stroke-width:1;stroke-linecap:round;stroke-linejoin:round;-inkscape-stroke:none"
       d="M 24.727576,10.743386 V 21.17112 c -7.95e-4,1.249024 -0.865092,2.004628 -1.524946,1.333463 l -5.123427,-5.215102 c -0.610904,-0.622585 -0.610904,-2.046817 0,-2.669402 L 23.20263,9.4074482 c 0.720332,-0.5619034 1.509829,0.1689493 1.524946,1.3359408 z m -7.472956,0 V 21.17112 c -7.93e-4,1.249024 -0.865092,2.004628 -1.524945,1.333463 l -5.123428,-5.215102 c -0.6109008,-0.622585 -0.6109008,-2.046817 0,-2.669402 l 5.123428,-5.2126308 c 0.720333,-0.5619034 1.50983,0.1689493 1.524945,1.3359408 z M 8.5390905,9.0333332 h 1.3e-6 c 0.7017333,0 1.2666664,0.5649333 1.2666664,1.2666668 v 11.4 c 0,0.701733 -0.5649331,1.266667 -1.2666664,1.266667 h -1.3e-6 C 7.8373571,22.966667 7.2724238,22.401733 7.2724238,21.7 V 10.3 c 0,-0.7017335 0.5649333,-1.2666668 1.2666667,-1.2666668 z" /><path
       id="Uniforms"
       style="display:none;fill:none;stroke:#ff0000;stroke-width:0.999998;stroke-linecap:round;stroke-linejoin:round"
       d="m 6.999999,22.500001 6.000003,-1e-6 m 7.999996,-1e-6 h 4.000001 m -6.999998,2e-6 a 2.5,2.5000024 0 0 1 -2.5,2.500002 2.5,2.5000024 0 0 1 -2.5,-2.500002 2.5,2.5000024 0 0 1 2.5,-2.500002 2.5,2.5000024 0 0 1 2.5,2.500002 z M 7,16 l 1.500004,-10e-7 m 7.999995,-1e-6 H 25 M 13.500003,16 a 2.5,2.5000024 0 0 1 -2.5,2.500002 A 2.5,2.5000024 0 0 1 8.5000029,16 2.5,2.5000024 0 0 1 11.000003,13.499998 2.5,2.5000024 0 0 1 13.500003,16 Z M 7,9.5000024 l 8.500002,-10e-7 m 4.999997,0 c 0,1.3807126 -1.119288,2.5000016 -2.5,2.5000016 -1.380712,0 -2.5,-1.119289 -2.5,-2.5000016 0,-1.3807132 1.119288,-2.5000024 2.5,-2.5000024 1.380712,0 2.5,1.1192892 2.5,2.5000024 z M 23.5,9.5000003 h 1.499991" /><path
       id="New"
       style="display:none;fill:none;stroke:#000000;stroke-width:1;stroke-linecap:round;stroke-linejoin:round"
       d="m 22.966667,13.466668 h -5.066666 c -0.701733,0 -1.266667,-0.564933 -1.266667,-1.266666 V 7.1333352 M 22.966667,23.6 c 0,0.701733 -0.564934,1.266666 -1.266666,1.266666 H 10.3 C 9.5982662,24.866666 9.0333328,24.301733 9.0333328,23.6 V 8.4000005 c 0,-0.7017333 0.5649334,-1.2666666 1.2666672,-1.2666666 h 6.966668 l 5.700001,5.7000001 c -4e-6,4.011111 -2e-6,6.755555 -2e-6,10.766666 z"
       sodipodi:nodetypes="csscssssssccs" /><path
       id="Open"
       style="display:none;fill:none;stroke:#000000;stroke-width:0.999983;stroke-linecap:round;stroke-linejoin:round"
       d="M 11.986805,12.822041 H 23.30139 c 1.403467,0 2.321254,1.109777 2.057819,2.488304 l -1.2297,6.434856 c -0.263432,1.378501 -1.605378,2.488291 -3.008845,2.488291 H 9.8060791 c -1.4034668,0 -2.3212542,-1.10979 -2.0578217,-2.488291 l 1.2297003,-6.434856 c 0.263435,-1.378526 1.6053813,-2.488304 3.0088473,-2.488304 z m 12.34302,0.0089 c -0.0014,-1.402254 -1.130591,-2.531221 -2.533179,-2.531221 h -6.332948 c 0,-1.4034669 -1.13037,-2.5331814 -2.533833,-2.5331814 H 9.130097 c -1.403454,0 -2.5331788,1.1297145 -2.5331788,2.5331814 v 2.533827 1.266591 7.599544 c 0,1.403466 1.1297248,2.533827 2.5331788,2.533827 h 11.990567" /><path
       id="Recent"
       style="display:none;fill:none;stroke:#000000;stroke-width:1;stroke-linecap:round;stroke-linejoin:round"
       d="m 24.866667,16 c 0,4.896921 -3.969742,8.866666 -8.866666,8.866666 -4.896925,0 -8.8666676,-3.969745 -8.8666676,-8.866666 0,-4.89692 3.9697426,-8.8666661 8.8666676,-8.8666661 4.896924,0 8.866666,3.9697461 8.866666,8.8666661 z m -5.06688,2.16e-4 -3.799789,-2.28e-4 v -5.699532"
       sodipodi:nodetypes="sssssccc" /><path
       id="Reload"
       style="display:none;fill:none;stroke:#000000;stroke-width:0.999997;stroke-linecap:round;stroke-linejoin:round"
       d="m 17.911536,13.816827 h 5.06668 V 8.7501606 m -0.164395,8.8967244 c -0.265522,1.338195 -0.921082,2.582632 -1.903102,3.566377 -2.720876,2.720863 -7.13222,2.720724 -9.85264,-2.79e-4 -2.7204833,-2.72051 -2.7203439,-7.131435 2.91e-4,-9.852083 2.720673,-2.7206481 7.131574,-2.7207621 9.852083,-2.91e-4 0.430768,0.432579 0.802091,0.920511 1.105306,1.450409"
       sodipodi:nodetypes="ccccccscc" /><path
       id="Save"
       style="display:none;fill:none;stroke:#000000;stroke-width:0.999994;stroke-linecap:round;stroke-linejoin:round"
       d="m 22.016172,24.218431 v -6.967224 c 0,-0.701733 -0.564859,-1.26659 -1.266589,-1.26659 h -9.500096 c -0.701732,0 -1.2665893,0.564857 -1.2665893,1.26659 v 6.967224 M 11.250142,7.7664202 v 3.7847108 c 0,0.701734 0.564857,1.267237 1.266589,1.267237 h 6.332948 c 0.701732,0 1.266589,-0.565503 1.266589,-1.267237 V 7.7664202 m -10.1331815,0 c -1.4034667,0 -2.5331814,1.1297146 -2.5331814,2.5331808 V 21.69974 c 0,1.403467 1.1297147,2.53384 2.5331814,2.53384 H 21.382324 c 1.403467,0 3.167772,-1.130373 3.167772,-2.53384 V 10.977699 L 21.338543,7.7664202 Z" /><path
       id="Files"
       style="display:none;fill:none;stroke:#1a1a1a;stroke-width:0.999999;stroke-linecap:round;stroke-linejoin:round"
       d="m 12.833278,12.833334 h 6.333332 c 0.701732,0 1.266666,0.564933 1.266666,1.266666 v 8.866667 c 0,0.701733 -0.564934,1.266666 -1.266666,1.266666 h -6.333332 c -0.701734,0 -1.266667,-0.564933 -1.266667,-1.266666 V 14.1 c 0,-0.701733 0.564933,-1.266666 1.266667,-1.266666 z m 7.599692,6.333295 h 2.533169 c 0.701735,0 1.267251,-0.564858 1.267251,-1.266591 V 9.0332582 c 0,-0.7017334 -0.565516,-1.2665907 -1.267251,-1.2665907 h -6.332938 c -0.701734,0 -1.26659,0.5648573 -1.26659,1.2665907 v 3.8004178 m 1.92e-4,-2.533675 H 9.0332002 c -0.7017322,0 -1.2665896,0.564857 -1.2665896,1.26659 v 8.86678 c 0,0.701734 0.5648574,1.266591 1.2665896,1.266591 h 2.5338338" /><path
       id="Export"
       style="display:none;fill:none;stroke:#000000;stroke-width:0.999997;stroke-linecap:round;stroke-linejoin:round;stroke-dasharray:none"
       d="M 19.19844,6.5307867 V 10.26706 h -6.55e-4 c -4.896752,3.04e-4 -8.866188,3.970025 -8.866126,8.86678 0.0019,0.424409 0.03428,0.848122 0.09688,1.267895 1.808734,-3.133643 5.15107,-5.065145 8.76925,-5.067666 h 6.55e-4 v 3.736273 l 6.26945,-6.270113 z M 13.080041,9.0021545 H 10.33151 c -1.4034657,0 -2.5331791,1.1297145 -2.5331791,2.5331815 v 11.39996 c 0,1.403467 1.1297134,2.533828 2.5331791,2.533828 h 11.39996 c 1.403464,0 2.533177,-1.130361 2.533177,-2.533828 v -4.453674" /><path
       id="Select"
       style="display:none;fill:none;stroke:#333333;stroke-width:1;stroke-linecap:round;stroke-linejoin:round;stroke-dasharray:none"
       d="m 24,17.5 v 2 m -2,4.499998 c 1.104569,0 2,-0.895431 2,-2 M 8,17.500001 v 2 m 2,4.499998 c -1.1045695,0 -2,-0.895431 -2,-2 M 17.499995,8 h 2 m 4.5,4.500002 v 2 m -15.9999988,-2 v 2 M 12.499994,8 h 2 m -6.499999,2.000006 c 0,-1.1045695 0.8954305,-2 2,-2 m 13.999998,2 c 0,-1.1045695 -0.895431,-2 -2,-2 M 17.5,24 h 2 m -7,0 h 2"
       inkscape:label="Select" /><path
       id="Delete"
       style="display:none;fill:#000000;stroke:#000000;stroke-width:1;stroke-linecap:round;stroke-linejoin:round;stroke-dasharray:none"
       d="m 21.5,10.5 -11,11 m 0,-11 11,11"
       inkscape:label="Delete" /><path
       id="Cut"
       style="display:none;fill:none;stroke:#000000;stroke-width:0.999999;stroke-linecap:round;stroke-linejoin:round;stroke-dasharray:none"
       d="M 12.819726,19.563735 15.9,15.014595 M 19.18,19.564229 10.5,6.7499985 M 17.276409,12.984824 21.5,6.7499985 M 24,22.25 A 3.0000005,3.0000014 0 0 1 21,25.250001 3.0000005,3.0000014 0 0 1 18,22.25 3.0000005,3.0000014 0 0 1 21,19.249998 3.0000005,3.0000014 0 0 1 24,22.25 Z m -10,0 A 3.0000005,3.0000014 0 0 1 11,25.250001 3.0000005,3.0000014 0 0 1 8,22.25 3.0000005,3.0000014 0 0 1 11,19.249998 3.0000005,3.0000014 0 0 1 14,22.25 Z" /><path
       id="Paste"
       style="display:none;fill:none;stroke:#000000;stroke-linecap:round;stroke-linejoin:round"
       inkscape:label="Paste"
       d="m 16.749999,12.749999 h 5 c 1.385,0 2.5,1.115 2.5,2.5 v 7.999999 c 0,1.385 -1.115,2.5 -2.5,2.5 h -5 c -1.385,0 -2.5,-1.115 -2.5,-2.5 v -7.999999 c 0,-1.385 1.115,-2.5 2.5,-2.5 z m 1.800004,-5.000004 h 1.2 c 1.108,0 2,0.8920025 2,2.0000025 V 11 M 13.000002,25.750001 H 9.7500011 c -1.108,0 -2,-0.892 -2,-2 V 9.749995 c 0,-1.108 0.892,-2 2,-2 H 11.050003 M 12.75,6.249999 h 4 c 0.831,0 1.5,0.669 1.5,1.5 v 5e-6 c 0,0.831 -0.669,1.5 -1.5,1.5 h -4 c -0.831,0 -1.5,-0.669 -1.5,-1.5 v -5e-6 c 0,-0.831 0.669,-1.5 1.5,-1.5 z" /><path
       id="Copy"
       style="display:none;fill:none;stroke:#000000;stroke-linecap:round;stroke-linejoin:round"
       d="m 18,22 c 0,1.385 -1.115,2.5 -2.5,2.5 h -5 C 9.1149995,24.5 7.9999995,23.385 7.9999995,22 V 14.000001 C 7.9999995,12.615 9.1149995,11.5 10.5,11.5 h 2 m 4.000001,-4.0000005 h 5 c 1.385,0 2.5,1.115 2.5,2.5 v 7.9999995 c 0,1.385 -1.115,2.5 -2.5,2.5 h -5 c -1.385,0 -2.5,-1.115 -2.5,-2.5 V 9.9999995 c 0,-1.385 1.115,-2.5 2.5,-2.5 z"
       inkscape:label="Copy" /><path
       id="Buffers"
       style="display:none;fill:none;stroke:#000000;stroke-width:1.00002;stroke-linecap:round;stroke-linejoin:round"
       d="m 7.6421743,18.937428 -0.5033619,0.253979 c -0.610142,0.307762 -0.610142,0.803688 0,1.11145 l 7.7599066,3.914316 c 0.61014,0.307762 1.592477,0.307762 2.202618,0 l 7.759904,-3.914316 c 0.610153,-0.30775 0.610153,-0.803688 0,-1.11145 l -0.502702,-0.25332 M 7.6421198,15.190033 7.1387579,15.444012 c -0.6101419,0.307762 -0.6101419,0.803687 0,1.111449 l 7.7599061,3.914317 c 0.610141,0.307762 1.592481,0.307762 2.202622,0 l 7.759904,-3.914317 c 0.610141,-0.307749 0.610141,-0.803687 0,-1.111449 l -0.502702,-0.25332 m -7.257151,-7.4078592 7.760081,3.9142282 c 0.610141,0.307762 0.610141,0.803294 0,1.111056 l -7.760081,3.914228 c -0.610141,0.307762 -1.592531,0.307749 -2.202673,0 L 7.1385894,12.808104 C 6.5284475,12.500342 6.5284361,12.004823 7.138578,11.697061 l 7.760075,-3.9142282 c 0.610142,-0.307762 1.592543,-0.307762 2.202684,0 z" /><path
       id="Resolution"
       style="display:none;fill:none;stroke:#ff0000;stroke-width:1;stroke-linecap:round;stroke-linejoin:round"
       d="m 16.49999,19.000032 v -3.499999 h -3.5 m 3.5,0 -7,6.957595 m -0.5,-9.457823 h 8 c 1.108,0 2,0.892 2,2 v 7.999999 c 0,1.108 -0.892,2 -2,2 h -8 c -1.108,0 -2,-0.892 -2,-2 v -7.999999 c 0,-1.108001 0.892,-2 2,-2 z M 9.500181,7.000033 H 8.999953 c -1.107998,0 -1.999878,0.891879 -1.999878,1.9998782 V 9.9998051 M 18.500149,7.000033 H 13.499937 M 25.00001,9.9998051 V 8.9999112 c 0,-1.1079991 -0.891879,-1.9998782 -1.999878,-1.9998782 H 21.99999 m 3.00002,11.499556 v -4.999695 m -3.00002,11.500073 h 1.000142 c 1.107999,0 1.999878,-0.892396 1.999878,-2.000395 V 21.999804 M 9.49999,19.000032 v 3.5 h 3.5"
       inkscape:label="Resolution" /><path
       id="FrameRate"
       style="color:#000000;display:none;fill:none;stroke:#ff0000;stroke-width:0.999997;stroke-linecap:round;stroke-linejoin:round;-inkscape-stroke:none"
       d="m 14.279977,14.241728 v 3.498305 c 4.11e-4,0.419039 0.448418,0.672511 0.790452,0.447361 l 2.655723,-1.74957 c 0.316663,-0.208874 0.316663,-0.686673 0,-0.895534 l -2.655723,-1.748747 c -0.373384,-0.188505 -0.782619,0.05662 -0.790452,0.448185 z m 5.520024,6.191605 h 2.533333 m -7.6,0 h 2.533333 m -7.6000002,0 H 12.2 m 7.600001,-8.866666 h 2.533333 m -7.6,0 h 2.533333 m -7.6000002,0 H 12.2 M 8.4000001,9.0333338 H 23.600001 c 0.701733,0 1.266666,0.5649333 1.266666,1.2666662 v 11.4 c 0,0.701733 -0.564933,1.266667 -1.266666,1.266667 H 8.4000001 C 7.6982667,22.966667 7.1333334,22.401733 7.1333334,21.7 V 10.3 c 0,-0.7017329 0.5649333,-1.2666662 1.2666667,-1.2666662 z"
       inkscape:label="FrameRate" /><path
       id="Speed"
       style="color:#000000;display:none;fill:none;stroke:#ff0000;stroke-width:0.999998;stroke-linecap:round;stroke-linejoin:round;-inkscape-stroke:none"
       d="m 13.537064,13.061638 v 5.845451 c 7.01e-4,0.70015 0.764291,1.123723 1.347259,0.747485 l 4.526445,-2.923416 c 0.539721,-0.349004 0.539721,-1.147372 0,-1.496376 l -4.526445,-2.922023 c -0.6364,-0.314995 -1.333905,0.09462 -1.347259,0.748879 z M 14.687597,6.5909219 C 13.05447,6.8114359 11.506793,7.4529645 10.196604,8.4525165 M 8.4050497,10.243938 c -0.9996509,1.310379 -1.6411935,2.858296 -1.8615922,4.491638 m 0,2.533181 c 0.2203962,1.633354 0.8619388,3.181271 1.8615922,4.49165 m 1.7915543,1.790902 c 1.310189,0.99954 2.857866,1.641081 4.490993,1.861582 m 2.535145,1.27e-4 c 4.713191,-0.63384 8.231547,-4.655101 8.233802,-9.410725 3.8e-5,-4.757372 -3.518876,-8.7812298 -8.233802,-9.4153104" /><path
       id="Options"
       style="display:none;fill:none;stroke:#1a1a1a;stroke-width:1;stroke-linecap:round;stroke-linejoin:round;stroke-dasharray:none"
       d="M 18.75,16 A 2.7500002,2.7500002 0 0 1 16,18.75 2.7500002,2.7500002 0 0 1 13.25,16 2.7500002,2.7500002 0 0 1 16,13.250001 2.7500002,2.7500002 0 0 1 18.75,16 Z m -2.749999,9.497276 c -3.303254,0 -0.968752,-1.142077 -3.829454,-2.807807 C 9.3098451,21.023727 9.4963998,23.633782 7.844773,20.748645 6.193146,17.863508 8.3410934,19.331473 8.3410934,16 c 0,-3.33146 -2.1479474,-1.863494 -0.4963204,-4.748632 1.6516255,-2.8851368 1.4650721,-0.275094 4.325774,-1.9408242 2.860702,-1.6657299 0.5262,-2.8078199 3.829454,-2.8078199 3.303253,0 0.968751,1.14209 3.829453,2.8078199 2.860701,1.6657302 2.674147,-0.9443126 4.325774,1.9408242 1.651627,2.885138 -0.496321,1.417172 -0.496321,4.748632 0,3.331473 2.147948,1.863508 0.496321,4.748645 -1.651627,2.885137 -1.465073,0.275082 -4.325774,1.940824 -2.860702,1.66573 -0.5262,2.807807 -3.829453,2.807807 z"
       inkscape:label="Options" /><path
       id="Help"
       style="display:none;fill:none;stroke:#ff0000;stroke-linecap:round;stroke-linejoin:round"
       d="m 16.031718,20.377061 c -0.110457,0 -0.2,-0.08954 -0.2,-0.2 0,-0.110457 0.08954,-0.2 0.2,-0.2 0.110457,0 0.2,0.08954 0.2,0.2 0,0.110457 -0.08954,0.2 -0.2,0.2 m -2.611221,-7.245795 c 0.292635,-1.710557 1.67738,-2.19754 2.579491,-2.232259 1.714836,-0.06599 3.011955,1.353953 2.556838,2.977692 -0.455118,1.623741 -2.592239,2.130141 -2.556829,3.904729 M 25.500001,16 a 9.5000002,9.4999995 0 0 1 -9.5,9.5 A 9.5000002,9.4999995 0 0 1 6.5000001,16 9.5000002,9.4999995 0 0 1 16.000001,6.5000006 9.5000002,9.4999995 0 0 1 25.500001,16 Z"
       inkscape:label="Help" /><path
       id="Folder"
       style="display:none;fill:none;stroke:#000000;stroke-width:0.999983;stroke-linecap:round;stroke-linejoin:round"
       d="m 22.335233,24.233485 c 1.402254,-0.0014 2.531221,-1.130591 2.531221,-2.533179 v -8.869389 c -0.0014,-1.402254 -1.130591,-2.531221 -2.533179,-2.531221 h -6.332948 c 0,-1.4034666 -1.13037,-2.5331811 -2.533833,-2.5331811 H 9.6667253 c -1.403454,0 -2.533179,1.1297145 -2.533179,2.5331811 0,3.799987 0,7.599975 0,11.399962 0,1.403466 1.129725,2.533827 2.533179,2.533827 z"
       sodipodi:nodetypes="cccscsscccc"
       inkscape:label="Folder" /><path
       id="FileSettings"
       style="display:none;fill:none;stroke:#1a1a1a;stroke-width:0.999994;stroke-linecap:round;stroke-linejoin:round;stroke-dasharray:none"
       d="M 17.238816,16.500144 A 1.2388165,1.2447089 0 0 1 16,17.744852 1.2388165,1.2447089 0 0 1 14.761183,16.500144 1.2388165,1.2447089 0 0 1 16,15.255435 1.2388165,1.2447089 0 0 1 17.238816,16.500144 Z M 16,20.798814 c -1.488045,0 -0.436402,-0.516929 -1.725087,-1.270873 -1.288685,-0.753951 -1.204646,0.427415 -1.948669,-0.878459 -0.744023,-1.305875 0.223582,-0.641442 0.223582,-2.149338 0,-1.50789 -0.967605,-0.843457 -0.223582,-2.149333 0.744022,-1.305874 0.659984,-0.124513 1.948669,-0.878458 1.288685,-0.753946 0.237042,-1.270879 1.725087,-1.270879 1.488045,0 0.436402,0.516933 1.725087,1.270879 1.288685,0.753945 1.204646,-0.427416 1.948669,0.878458 0.744023,1.305876 -0.223582,0.641443 -0.223582,2.149333 0,1.507896 0.967605,0.843463 0.223582,2.149338 -0.744023,1.305874 -0.659984,0.124508 -1.948669,0.878459 C 16.436402,20.281885 17.488045,20.798814 16,20.798814 Z M 22.966666,23.6 c 0,0.701733 -0.564934,1.266666 -1.266666,1.266666 H 10.299999 C 9.598265,24.866666 9.033332,24.301733 9.033332,23.6 V 8.4 c 0,-0.701733 0.564933,-1.266666 1.266667,-1.266666 h 6.966668 l 5.700001,5.7 c -4e-6,4.011111 -2e-6,6.755555 -2e-6,10.766666 z" /><path
       id="FileUniforms"
       style="display:none;fill:none;stroke:#000000;stroke-width:1;stroke-linecap:round;stroke-linejoin:round"
       d="m 12,18.6 h 2.75 m 2.25,0 a 1,1 0 0 1 -1,1 1,1 0 0 1 -1,-1 1,1 0 0 1 1,-1 1,1 0 0 1 1,1 z m -5,-4 h 5.75 m 2.25,0 a 1,1 0 0 1 -1,1 1,1 0 0 1 -1,-1 1,1 0 0 1 1,-1 1,1 0 0 1 1,1 z m 2.966666,9 c 0,0.701733 -0.564934,1.266666 -1.266666,1.266666 H 10.299999 C 9.5982651,24.866666 9.033332,24.301733 9.033332,23.6 V 8.3999997 c 0,-0.701733 0.5649331,-1.266666 1.266667,-1.266666 h 6.966668 l 5.700001,5.7000003 c -4e-6,4.011111 -2e-6,6.755555 -2e-6,10.766666 z"
       inkscape:label="FileUniforms" /><path
       id="FileProject"
       style="display:none;fill:none;stroke:#1a1a1a;stroke-width:0.999994;stroke-linecap:round;stroke-linejoin:round;stroke-dasharray:none"
       d="m 22.966666,23.6 c 0,0.701733 -0.564934,1.266666 -1.266666,1.266666 H 10.299999 C 9.598265,24.866666 9.033332,24.301733 9.033332,23.6 V 8.4 c 0,-0.701733 0.564933,-1.266666 1.266667,-1.266666 h 6.966668 l 5.700001,5.7 c -4e-6,4.011111 -2e-6,6.755555 -2e-6,10.766666 z M 16,12 12.095023,14.250239 M 19.904977,18.750714 16,21.000953 M 19.904977,14.250238 16,16.500477 M 19.904977,14.250238 16,12 m 0,9.000954 -3.904977,-2.250239 M 16,16.500477 12.095023,14.250239 m 7.809954,-1e-6 v 4.500476 m -7.809954,-4.500475 v 4.500476 M 16,16.500477 v 4.500477"
       inkscape:label="FileProject" /><path
       id="FileCode"
       style="display:none;fill:none;stroke:#000000;stroke-linecap:round;stroke-linejoin:round"
       d="m 15.080612,19.787236 1.838777,-6.574111 m 1.819422,5.255498 2.026538,-1.968442 -2.026538,-1.968443 m -5.477622,3.936885 -2.026538,-1.968442 2.026538,-1.968443 M 22.966666,23.6 c 0,0.701733 -0.564934,1.266666 -1.266666,1.266666 H 10.299999 C 9.5982649,24.866666 9.0333319,24.301733 9.0333319,23.6 V 8.3999998 c 0,-0.701733 0.564933,-1.266666 1.2666671,-1.266666 h 6.966668 l 5.700001,5.7000002 c -4e-6,4.011111 -2e-6,6.755555 -2e-6,10.766666 z"
       sodipodi:nodetypes="ccccccccssssssccs"
       inkscape:label="FileCode" /><path
       id="Overlay"
       style="display:none;fill:none;stroke:#000000;stroke-linecap:round;stroke-linejoin:round"
       d="m 23.000004,25 h -9.999996 c -1.108,0 -2,-0.892 -2,-2 v -9.999999 c 0,-1.108 0.892,-2 2,-2 h 9.999996 c 1.108,0 2,0.892 2,2 V 23 c 0,1.108 -0.892,2 -2,2 z m -6.500141,-3.999965 h -1.999896 m -2.500128,0 -2.9998447,-1e-6 c -1.1079989,0 -2,-0.892001 -2,-2 V 9.0000353 c 0,-1.1079989 0.8920011,-2 2,-2 H 18.99999 c 1.107999,0 2,0.8920011 2,2 l 1e-6,2.9998447 m 0,2.500129 v 2.000413 m -1e-6,2.499612 v 0 m 0,0 c 0,1.107999 -0.892001,2 -2,2 v 0 0"
       inkscape:label="Overlay" /><path
       id="Project"
       style="display:none;fill:none;stroke:#1a1a1a;stroke-width:0.999991;stroke-linecap:round;stroke-linejoin:round;stroke-dasharray:none"
       d="M 16,7.4999953 8.571794,11.750001 M 23.428206,20.25 16,24.500002 M 23.428206,11.749997 16,16 M 23.428206,11.749997 16,7.4999953 M 16,24.500005 8.571794,20.250002 M 16,16.000001 l -7.428206,-4.25 m 14.856412,-2e-6 V 20.25 M 8.571794,11.750001 v 8.500001 M 16,16.000001 v 8.500004"
       inkscape:label="Project"
       sodipodi:nodetypes="cccccccccccccccccc" /><path
       style="display:none;fill:#e6e6e6;stroke:#000000;stroke-width:1;stroke-linecap:round;stroke-linejoin:round"
       d="M 11,16 H 21"
       id="Remove"
       sodipodi:nodetypes="cc"
       inkscape:label="Remove" /><path
       id="StartPage"
       style="display:inline;fill:none;stroke:#000000;stroke-width:0.999989;stroke-linecap:round;stroke-linejoin:round"
       inkscape:label="StartPage"
       d="m 18.570958,24.639341 v -5.459088 c 0,-0.987556 -0.794474,-1.782592 -1.781332,-1.782592 h -1.57877 c -0.986858,0 -1.781332,0.795036 -1.781332,1.782592 v 5.459088 m -2.819778,0.227164 c -0.9868573,0 -1.7812248,-0.794929 -1.7812248,-1.782483 v -5.686281 c -0.8555905,0 -1.5441829,-0.689088 -1.5441829,-1.545279 0,-0.455762 0.1743393,-0.911867 0.5233196,-1.261096 L 14.736938,7.6571856 c 0.348981,-0.3492291 0.804761,-0.5236908 1.263303,-0.5236908 0.458542,0 0.914322,0.1744617 1.263303,0.5236908 l 6.92928,6.9341814 c 0.34898,0.349229 0.52332,0.805334 0.52332,1.261096 0,0.85619 -0.688593,1.545278 -1.544183,1.545278 v 5.686281 c 0,0.987554 -0.794368,1.782483 -1.781225,1.782483 z"
       sodipodi:nodetypes="csccsccscscccccscscc" /></g></svg>
